<svg xmlns="http://www.w3.org/2000/svg" xml:space="preserve" width="2000" height="1500" viewBox="0 0 2000 1500" data-version="1" data-id="lg_gHvA0Fp0ntoAZwGsbK" x="0" y="0"><rect width="2000" height="1500" id="background" stroke="transparent" fill="#ffffff"></rect><g id="outer-wrapper" data-padding="20" transform="matrix(4.1145296818593815,0,0,4.1145296818593815,-3114.5296818593815,-2335.8972613945357)"><g id="inner-wrapper" transform="matrix(0.8830409356725146,0,0,0.8830409356725146,10,14.502923976608187)"><path fill="#f3bae0" d="M1121.1258278145697 708.8539072847681A124.06 124.06 0 1 0 1121.1258278145697 956.9739072847682A124.06 124.06 0 1 0 1121.1258278145697 708.8539072847682 "></path><path fill="#3d2f28" d="M1124.3758278145697 796.6679072847681A4.175 4.175 0 0 0 1116.6928278145697 796.6679072847681L1074.6098278145696 891.8579072847681A9.185 9.185 0 0 0 1082.9598278145697 904.716907284768H1158.1098278145696L1160.7818278145696 904.215907284768L1161.6168278145697 904.5499072847681V903.8819072847681A9.185 9.185 0 0 0 1166.2928278145696 891.8579072847681ZM1116.3588278145696 763.9359072847681V777.7969072847682A4.175 4.175 0 1 0 1124.7088278145698 777.7969072847682V763.9359072847682A4.175 4.175 0 0 0 1116.3588278145696 763.9359072847682M1142.2438278145696 776.4609072847682L1133.8938278145697 786.9819072847681A4.226 4.226 0 1 0 1140.5738278145695 792.1589072847681L1148.9238278145697 781.6379072847682A4.226 4.226 0 1 0 1142.2438278145696 776.4609072847682M1092.9788278145697 775.7929072847681A4.175 4.175 0 0 0 1092.3108278145696 781.6379072847682L1100.4938278145696 792.1589072847681A4.226 4.226 0 0 0 1107.1738278145697 786.9819072847681L1098.8238278145698 776.4609072847682A4.175 4.175 0 0 0 1092.9788278145697 775.7929072847681 "></path></g><rect width="171" height="248" x="948.3986529098885" y="626" id="space-saver" fill="transparent" stroke="transparent"></rect></g></svg>