<svg xmlns="http://www.w3.org/2000/svg" xml:space="preserve" width="2000" height="1500" viewBox="0 0 2000 1500" data-version="1" data-id="lg_gHvA0Fp0ntoAZwGsbK" x="0" y="0"><rect width="2000" height="1500" id="background" stroke="transparent" fill="#ffffff"></rect><g id="outer-wrapper" data-padding="20" transform="matrix(3.054989816700611,0,0,3.054989816700611,-2054.9898167006113,-1541.2423625254582)"><g id="inner-wrapper" transform="matrix(0.9592668024439919,0,0,0.9592668024439919,10,6.334012219959277)"><path fill="#f3bae0" d="M1031.5382165605097 619.8211613588111A94.286 94.286 0 1 0 1031.5382165605097 808.3931613588111A94.286 94.286 0 1 0 1031.5382165605097 619.8211613588111 "></path><path fill="#3d2f28" d="M1034.0082165605097 686.5601613588111A3.173 3.173 0 0 0 1028.1692165605095 686.5601613588111L996.1852165605096 758.904161358811A6.98 6.98 0 0 0 1002.5312165605096 768.6771613588111H1059.6452165605097L1061.6762165605096 768.2971613588111L1062.3112165605096 768.5501613588111V768.0431613588111A6.98 6.98 0 0 0 1065.8652165605095 758.904161358811ZM1027.9152165605096 661.684161358811V672.2181613588111A3.173 3.173 0 0 0 1034.2612165605096 672.2181613588111V661.684161358811A3.173 3.173 0 1 0 1027.9152165605096 661.684161358811M1047.5882165605096 671.203161358811L1041.2422165605096 679.1991613588111A3.211 3.211 0 0 0 1046.3192165605096 683.1331613588111L1052.6652165605096 675.1371613588111A3.211 3.211 0 0 0 1047.5882165605096 671.203161358811M1010.1472165605096 670.6951613588111A3.173 3.173 0 0 0 1009.6392165605097 675.1371613588111L1015.8592165605097 683.1331613588111A3.211 3.211 0 0 0 1020.9352165605097 679.1991613588111L1014.5892165605097 671.203161358811A3.173 3.173 0 0 0 1010.1472165605097 670.6951613588111 "></path><rect width="455" height="88.14" x="432.8782165605096" y="385.62716135881124" fill="none" rx="0" ry="0" transform="translate(371.66 423)"></rect><path d="M849.8882165605096 876.6971613588111V821.0171613588111H867.2182165605096Q878.3382165605096 821.0171613588111 884.0482165605096 824.1371613588111Q889.7582165605096 827.2671613588111 889.7582165605096 835.1071613588111Q889.7582165605096 838.2671613588111 888.7482165605096 840.8271613588112Q887.7382165605096 843.3771613588111 885.8382165605096 845.0171613588111Q883.9382165605095 846.6471613588111 881.1882165605095 847.1471613588111V847.5271613588111Q883.9682165605096 848.0971613588111 886.2182165605096 849.4871613588111T889.8182165605097 853.5271613588111Q891.1682165605096 856.1671613588111 891.1682165605096 860.5471613588111Q891.1682165605096 865.6171613588111 888.6982165605095 869.2371613588111Q886.2182165605096 872.8571613588111 881.6282165605096 874.7771613588111T870.7182165605096 876.6971613588111ZM861.6882165605097 830.6971613588111V843.0671613588111H868.5482165605097Q873.6882165605097 843.0671613588111 875.6682165605097 841.4471613588111Q877.6482165605096 839.837161358811 877.6482165605096 836.6671613588111Q877.6482165605096 833.4771613588111 875.3082165605097 832.0871613588112T867.8982165605096 830.6971613588112ZM869.0082165605096 852.4371613588111H861.6882165605097V866.9471613588111H869.3882165605096Q874.7182165605096 866.9471613588111 876.8082165605097 864.8971613588111Q878.9082165605096 862.837161358811 878.9082165605096 859.3671613588111Q878.9082165605096 857.3171613588111 877.9882165605096 855.7571613588111Q877.0782165605096 854.1871613588111 874.9282165605096 853.3171613588111Q872.7782165605096 852.4371613588111 869.0082165605096 852.4371613588111M940.0682165605097 855.337161358811Q940.0682165605097 860.6671613588111 938.6482165605096 864.7771613588111Q937.2182165605096 868.8971613588111 934.4882165605096 871.727161358811Q931.7682165605096 874.5671613588111 927.9382165605095 876.0171613588111Q924.1182165605096 877.457161358811 919.3182165605095 877.457161358811Q914.8182165605095 877.457161358811 911.0682165605095 876.0171613588111Q907.3182165605095 874.5671613588111 904.5582165605095 871.727161358811Q901.7982165605096 868.8971613588111 900.2882165605096 864.7771613588111Q898.7882165605096 860.6671613588111 898.7882165605096 855.337161358811Q898.7882165605096 848.2471613588111 901.2982165605096 843.337161358811Q903.8182165605095 838.4271613588111 908.4582165605095 835.867161358811Q913.1082165605096 833.3171613588111 919.5482165605096 833.3171613588111Q925.5182165605096 833.3171613588111 930.1482165605096 835.867161358811Q934.7782165605096 838.4271613588111 937.4282165605096 843.337161358811Q940.0682165605095 848.2471613588111 940.0682165605095 855.337161358811M910.6282165605095 855.337161358811Q910.6282165605095 859.5271613588111 911.5482165605094 862.3771613588111Q912.4582165605095 865.2371613588111 914.3982165605095 866.6871613588111Q916.3482165605095 868.1271613588111 919.4682165605095 868.1271613588111Q922.5482165605094 868.1271613588111 924.4782165605095 866.6871613588111Q926.3982165605095 865.2371613588111 927.2982165605094 862.3771613588111Q928.1882165605094 859.5271613588111 928.1882165605094 855.337161358811Q928.1882165605094 851.107161358811 927.2982165605094 848.3071613588111Q926.3982165605095 845.5071613588111 924.4582165605095 844.0971613588111T919.3882165605095 842.6871613588111Q914.7782165605095 842.6871613588111 912.7082165605095 845.8471613588111Q910.6282165605095 849.0071613588111 910.6282165605095 855.3371613588112M973.8482165605095 833.3171613588112Q980.6582165605095 833.3171613588112 984.8082165605094 837.0371613588112Q988.9682165605095 840.7471613588111 988.9682165605095 848.9371613588112V876.6971613588111H977.3482165605095V851.827161358811Q977.3482165605095 847.2571613588111 975.6882165605094 844.9371613588111Q974.0382165605095 842.6171613588111 970.4882165605095 842.6171613588111Q965.1582165605095 842.6171613588111 963.2182165605095 846.2271613588111Q961.2782165605095 849.8471613588111 961.2782165605095 856.6671613588111V876.6971613588111H949.6582165605095V834.1171613588111H958.5382165605095L960.0982165605095 839.5671613588111H960.7382165605095Q962.1182165605095 837.3571613588111 964.1482165605095 835.9871613588111Q966.1882165605095 834.6171613588111 968.6882165605095 833.9671613588112Q971.1782165605096 833.3171613588112 973.8482165605095 833.3171613588112M1000.9382165605095 834.1171613588111H1012.5482165605096V876.6971613588111H1000.9382165605095ZM1006.7582165605095 817.4371613588112Q1009.3482165605095 817.4371613588112 1011.2182165605095 818.6371613588111Q1013.0782165605095 819.8371613588112 1013.0782165605095 823.1171613588111Q1013.0782165605095 826.3471613588111 1011.2182165605095 827.5871613588112Q1009.3482165605095 828.8271613588112 1006.7582165605095 828.8271613588112Q1004.1282165605095 828.8271613588112 1002.2882165605095 827.5871613588112Q1000.4382165605094 826.3471613588111 1000.4382165605094 823.1171613588111Q1000.4382165605094 819.8371613588112 1002.2882165605095 818.6371613588111Q1004.1282165605095 817.4371613588112 1006.7582165605095 817.4371613588112M1048.2782165605095 834.1171613588111V842.8371613588112H1038.2182165605095V876.6971613588111H1026.5982165605094V842.837161358811H1020.2082165605095V837.2471613588111L1026.5982165605094 834.1171613588111V830.9971613588111Q1026.5982165605094 825.5471613588111 1028.4482165605095 822.5271613588111Q1030.2982165605094 819.4971613588111 1033.6682165605096 818.2571613588111T1041.6482165605096 817.0171613588111Q1045.0382165605097 817.0171613588111 1047.8182165605094 817.5671613588111Q1050.5982165605096 818.1271613588111 1052.3482165605096 818.8071613588111L1049.3782165605094 827.337161358811Q1048.0482165605094 826.9171613588111 1046.4882165605095 826.577161358811Q1044.9182165605096 826.2371613588111 1042.9082165605096 826.2371613588111Q1040.4682165605095 826.2371613588111 1039.3382165605096 827.7071613588112Q1038.2182165605095 829.1671613588111 1038.2182165605095 831.4571613588112V834.1171613588111ZM1072.3682165605096 833.2571613588111Q1080.9382165605093 833.2571613588111 1085.5082165605095 836.9871613588111T1090.0782165605094 848.3371613588112V876.7071613588112H1081.9682165605095L1079.7182165605095 870.9171613588112H1079.4182165605093Q1077.5882165605094 873.2071613588112 1075.6882165605093 874.6571613588112Q1073.7782165605095 876.0971613588111 1071.3082165605094 876.7871613588112Q1068.8282165605094 877.4671613588112 1065.2882165605095 877.4671613588112Q1061.5182165605095 877.4671613588112 1058.5282165605095 876.0271613588112Q1055.5382165605095 874.5771613588112 1053.8282165605094 871.5871613588112Q1052.1082165605094 868.5971613588111 1052.1082165605094 863.9871613588111Q1052.1082165605094 857.2071613588112 1056.8682165605094 853.9871613588111Q1061.6282165605094 850.7771613588112 1071.1582165605096 850.4271613588112L1078.5382165605095 850.2071613588112V848.3371613588112Q1078.5382165605095 844.9871613588111 1076.7882165605095 843.4271613588111Q1075.0382165605095 841.8571613588111 1071.9182165605093 841.8571613588111Q1068.8282165605094 841.8571613588111 1065.8582165605094 842.7371613588111T1059.9182165605093 844.9471613588111L1056.0682165605094 837.097161358811Q1059.4582165605093 835.3071613588111 1063.6682165605093 834.2871613588111Q1067.8782165605094 833.2571613588111 1072.3682165605094 833.2571613588111M1078.5382165605095 860.4871613588111V856.9771613588111L1074.0482165605094 857.1371613588111Q1068.4082165605096 857.2871613588111 1066.2182165605095 859.1571613588111Q1064.0282165605095 861.0171613588111 1064.0282165605095 864.0671613588112Q1064.0282165605095 866.7271613588111 1065.5882165605094 867.8571613588111Q1067.1582165605096 868.9771613588111 1069.6682165605093 868.9771613588111Q1073.3982165605094 868.9771613588111 1075.9682165605095 866.7671613588112T1078.5382165605095 860.4871613588112M1119.9882165605095 868.2071613588113Q1121.8982165605094 868.2071613588113 1123.7082165605093 867.8271613588113Q1125.5082165605095 867.4471613588113 1127.2982165605094 866.8771613588112V875.5171613588112Q1125.4382165605093 876.3571613588113 1122.6782165605096 876.9071613588112T1116.6382165605094 877.4571613588113Q1112.8282165605094 877.4571613588113 1109.7982165605094 876.2271613588113Q1106.7782165605095 874.9871613588112 1105.0382165605095 871.9171613588112Q1103.3082165605094 868.8571613588113 1103.3082165605094 863.3671613588112V842.8371613588112H1097.7482165605093V837.9271613588112L1104.1482165605094 834.0471613588112L1107.4982165605093 825.0571613588112H1114.9282165605096V834.1171613588111H1126.8482165605094V842.8371613588112H1114.9282165605096V863.3671613588111Q1114.9282165605096 865.8071613588112 1116.3182165605094 867.0071613588111T1119.9882165605095 868.2071613588112M1163.3582165605094 834.1171613588111H1174.9782165605093V876.6971613588111H1166.0682165605094L1164.4982165605093 871.2571613588111H1163.8882165605094Q1162.5182165605092 873.4271613588111 1160.4682165605095 874.7971613588111Q1158.4082165605093 876.1671613588111 1155.9282165605093 876.8171613588111Q1153.4582165605093 877.457161358811 1150.7882165605092 877.457161358811Q1146.2182165605095 877.457161358811 1142.8282165605094 875.847161358811Q1139.4382165605093 874.227161358811 1137.5582165605094 870.7971613588111Q1135.6682165605093 867.367161358811 1135.6682165605093 861.887161358811V834.117161358811H1147.2882165605095V858.987161358811Q1147.2882165605095 863.5571613588111 1148.9282165605096 865.887161358811Q1150.5582165605094 868.207161358811 1154.1382165605094 868.207161358811Q1157.6882165605093 868.207161358811 1159.7082165605093 866.587161358811Q1161.7182165605095 864.967161358811 1162.5382165605092 861.827161358811T1163.3582165605094 854.157161358811ZM1216.8682165605094 864.0571613588112Q1216.8682165605094 868.3971613588111 1214.8282165605094 871.3871613588111Q1212.7982165605094 874.3771613588111 1208.7582165605095 875.9171613588111T1198.7082165605093 877.4571613588112Q1194.2482165605093 877.4571613588112 1191.0682165605094 876.8871613588111T1184.6482165605094 874.9871613588111V865.3871613588111Q1188.1182165605096 866.9471613588112 1192.0982165605096 867.9571613588112T1199.0882165605094 868.9671613588112Q1202.4782165605095 868.9671613588112 1203.9382165605095 867.9571613588112Q1205.4082165605096 866.9471613588112 1205.4082165605096 865.3171613588112Q1205.4082165605096 864.2471613588111 1204.8182165605094 863.3871613588111T1202.2882165605097 861.4471613588112Q1200.3382165605094 860.3571613588111 1196.1882165605095 858.6071613588111Q1192.1882165605095 856.9371613588112 1189.6182165605096 855.2171613588112Q1187.0482165605094 853.5071613588112 1185.8082165605097 851.1671613588112Q1184.5782165605096 848.8171613588112 1184.5782165605096 845.2071613588112Q1184.5782165605096 839.2971613588112 1189.1582165605096 836.3071613588112Q1193.7482165605097 833.3171613588112 1201.4482165605095 833.3171613588112Q1205.4082165605096 833.3171613588112 1209.0082165605095 834.1171613588112T1216.4182165605093 836.6671613588112L1212.9082165605096 845.0471613588112Q1209.7482165605095 843.6771613588112 1206.9482165605095 842.8071613588112Q1204.1482165605094 841.9271613588112 1201.2582165605095 841.9271613588112Q1198.7082165605093 841.9271613588112 1197.4082165605093 842.6171613588112Q1196.1182165605094 843.2971613588112 1196.1182165605094 844.7071613588112Q1196.1182165605094 845.7371613588111 1196.7782165605095 846.5371613588112Q1197.4482165605093 847.3371613588112 1199.3682165605094 848.3071613588112Q1201.2982165605094 849.2771613588112 1205.0282165605095 850.7971613588112Q1208.6482165605094 852.2871613588112 1211.3082165605092 853.9071613588112Q1213.9782165605093 855.5271613588112 1215.4282165605093 857.9071613588112Q1216.8682165605094 860.2871613588112 1216.8682165605094 864.0571613588112 "></path><rect width="491.396" height="33.9" x="414.6802165605096" y="412.7471613588112" fill="none" rx="0" ry="0" transform="translate(371.66 484.02)"></rect><path fill="#3d2f28" d="M792.9082165605096 903.9771613588111V921.867161358811Q792.9082165605096 922.3071613588111 792.7282165605096 922.4771613588111Q792.5382165605097 922.6371613588111 792.0982165605096 922.6371613588111H788.9782165605096Q788.5382165605097 922.6371613588111 788.3582165605096 922.4771613588111Q788.1782165605096 922.3071613588111 788.1782165605096 921.867161358811V903.9771613588111Q788.1782165605096 903.5571613588111 788.3182165605097 903.337161358811Q788.9782165605096 902.367161358811 790.1682165605096 901.2971613588111Q790.3882165605096 901.127161358811 790.5482165605097 901.127161358811Q790.7282165605096 901.127161358811 790.9182165605096 901.2971613588111Q791.5582165605097 901.857161358811 791.9982165605096 902.357161358811Q792.4382165605097 902.867161358811 792.7582165605096 903.337161358811Q792.9082165605096 903.5671613588111 792.9082165605096 903.9771613588111M811.7382165605096 913.3071613588111V921.867161358811Q811.7382165605096 922.3071613588111 811.5582165605097 922.4771613588111Q811.3782165605096 922.6371613588111 810.9382165605097 922.6371613588111H807.9182165605096Q807.4782165605096 922.6371613588111 807.2982165605097 922.4771613588111Q807.1082165605096 922.3071613588111 807.1082165605096 921.867161358811V914.0671613588111Q807.1082165605096 912.4771613588111 806.4382165605097 911.7471613588111Q805.7582165605096 911.0071613588111 804.6082165605096 911.0071613588111Q803.4482165605096 911.0071613588111 802.8282165605096 911.5071613588111T801.8682165605096 912.7671613588111V921.867161358811Q801.8682165605096 922.3071613588111 801.6882165605095 922.4771613588111Q801.4982165605096 922.6371613588111 801.0582165605097 922.6371613588111H798.0482165605097Q797.6082165605096 922.6371613588111 797.4182165605096 922.4771613588111Q797.2382165605096 922.3071613588111 797.2382165605096 921.867161358811V909.587161358811Q797.2382165605096 909.2371613588111 797.3882165605096 909.0471613588111Q797.6882165605097 908.637161358811 798.1282165605096 908.2171613588112Q798.5582165605097 907.7871613588111 799.1882165605097 907.3071613588111Q799.3782165605096 907.1571613588111 799.5482165605097 907.1571613588111T799.9182165605097 907.3071613588111Q800.5382165605097 907.7871613588111 800.9682165605096 908.2271613588111Q801.4082165605097 908.6671613588111 801.7482165605097 909.1371613588111H801.8182165605097Q802.0682165605097 908.8171613588111 802.5682165605097 908.3771613588111Q803.0682165605097 907.9471613588112 803.9682165605096 907.6071613588111Q804.8682165605096 907.2771613588111 806.2782165605097 907.2771613588111Q807.6482165605097 907.2771613588111 808.8982165605097 907.8271613588112Q810.1382165605097 908.3871613588112 810.9382165605097 909.7071613588112T811.7382165605097 913.3071613588112M819.8682165605096 923.0171613588111Q818.2982165605097 923.0171613588111 817.2682165605097 922.7571613588111Q816.2382165605097 922.4871613588111 815.6182165605096 922.1171613588112Q814.9882165605097 921.7471613588111 814.6382165605097 921.4371613588112Q814.3782165605097 921.1871613588112 814.5782165605096 920.8771613588112L816.0782165605096 918.6671613588112Q816.3982165605097 918.1971613588112 816.8082165605097 918.6071613588113Q817.2282165605096 919.0171613588112 817.9582165605096 919.4071613588112Q818.6782165605097 919.7971613588112 819.7682165605097 919.7971613588112Q820.7382165605097 919.7971613588112 821.3582165605096 919.4671613588112T821.9782165605097 918.5071613588112Q821.9782165605097 918.0671613588113 821.6982165605096 917.7871613588112T820.7182165605097 917.2171613588112T818.7582165605097 916.4671613588112Q816.8982165605097 915.7971613588112 815.9482165605096 914.8471613588113Q814.9882165605097 913.8871613588112 814.9882165605097 912.0571613588112Q814.9882165605097 910.3771613588112 815.9182165605097 909.3171613588112Q816.8482165605096 908.2671613588111 818.3082165605097 907.7771613588111T821.3482165605096 907.2871613588111Q823.3582165605096 907.2871613588111 824.1682165605097 907.6571613588112Q824.9782165605096 908.0371613588111 825.2182165605096 908.2371613588111Q825.4382165605097 908.4271613588112 825.5282165605097 908.6771613588112Q825.7182165605096 909.2471613588111 825.8182165605097 910.1871613588112Q825.8782165605096 910.7271613588111 825.5382165605097 910.9071613588112Q825.3582165605096 911.0071613588111 824.9782165605096 911.1271613588112Q824.5982165605096 911.2371613588111 824.2182165605096 911.3271613588112T823.6482165605097 911.4171613588112Q823.5882165605096 911.4171613588112 823.5282165605097 911.3771613588111Q823.4582165605096 911.3471613588111 823.2982165605097 911.1971613588112Q823.1082165605096 911.0071613588111 822.6482165605097 910.7571613588111T821.3782165605096 910.5071613588111Q820.5882165605096 910.5071613588111 820.0482165605097 910.7671613588111Q819.5182165605097 911.0171613588111 819.5182165605097 911.6671613588111Q819.5182165605097 912.367161358811 820.1982165605096 912.7171613588112T822.4482165605096 913.6271613588111Q823.6782165605097 914.0571613588111 824.5982165605096 914.5571613588111Q825.5082165605097 915.0671613588111 826.0082165605097 915.8771613588111T826.5082165605097 918.0671613588111Q826.5082165605097 919.8571613588111 825.5282165605097 920.9471613588112Q824.5582165605097 922.0371613588111 823.0382165605097 922.5271613588111Q821.5282165605097 923.0171613588111 819.8682165605096 923.0171613588111M838.6882165605097 907.2871613588111Q840.8282165605096 907.2871613588111 842.2182165605096 908.2471613588111Q843.5982165605096 909.207161358811 844.2782165605097 910.877161358811Q844.9582165605096 912.5571613588111 844.9582165605096 914.7271613588111Q844.9582165605096 917.0671613588111 844.1682165605097 918.9471613588112Q843.3682165605096 920.8171613588111 841.8082165605097 921.9171613588112Q840.2582165605097 923.0171613588111 837.9582165605096 923.0171613588111Q836.7782165605097 923.0171613588111 836.0082165605097 922.7471613588111T834.7782165605097 922.0971613588113Q834.3082165605097 921.7271613588111 834.0482165605097 921.4171613588112H833.9882165605097V927.6571613588112Q833.9882165605097 928.0171613588112 833.8482165605097 928.2071613588112Q833.2282165605097 929.0071613588112 832.0382165605097 929.9471613588112Q831.8382165605097 930.0971613588113 831.6782165605097 930.0971613588113Q831.4982165605097 930.0971613588113 831.3082165605097 929.9471613588112Q830.6782165605097 929.4671613588112 830.2482165605097 929.0371613588112Q829.8182165605097 928.6171613588112 829.5082165605097 928.2071613588112Q829.3582165605096 928.0171613588112 829.3582165605096 927.6571613588112V909.597161358811Q829.3582165605096 909.2471613588111 829.5082165605097 909.0571613588111Q829.8182165605097 908.647161358811 830.2482165605097 908.2271613588111Q830.6782165605097 907.7971613588111 831.3082165605097 907.3171613588111Q831.4982165605097 907.1671613588111 831.7082165605098 907.1671613588111Q831.8982165605097 907.1671613588111 832.0982165605096 907.3171613588111Q832.7182165605097 907.7971613588111 833.1582165605097 908.2371613588111T833.9282165605097 909.1471613588111H834.0082165605097Q834.2582165605097 908.837161358811 834.7682165605097 908.3971613588111T836.2282165605097 907.6171613588111Q837.1682165605097 907.2871613588111 838.6882165605098 907.2871613588111M836.8882165605097 919.2871613588111Q838.4682165605097 919.2871613588111 839.3482165605097 918.1771613588112Q840.2182165605097 917.0671613588111 840.2182165605097 914.9771613588111Q840.2182165605097 911.0171613588111 836.9682165605097 911.0171613588111Q835.5882165605097 911.0171613588111 834.9282165605098 911.5871613588112Q834.2682165605097 912.1471613588112 833.9882165605097 912.7771613588111V915.9571613588112Q833.9882165605097 917.3771613588112 834.7182165605097 918.3271613588112Q835.4582165605098 919.2871613588111 836.8882165605097 919.2871613588111M847.4382165605098 902.7171613588112Q847.4382165605098 902.5271613588111 847.5582165605097 902.3871613588112Q847.6682165605098 902.2371613588111 847.8582165605097 901.9971613588111Q848.2682165605097 901.5371613588112 848.8182165605098 901.0171613588111Q849.3582165605097 900.4971613588111 849.9182165605098 900.0071613588111Q850.2682165605097 899.7271613588111 850.4382165605098 899.7271613588111Q850.6182165605097 899.7271613588111 850.9782165605097 900.0071613588111Q852.1682165605098 901.0371613588111 853.0082165605097 901.9971613588111Q853.1982165605098 902.2171613588112 853.3182165605098 902.3771613588112Q853.4482165605098 902.5271613588111 853.4482165605098 902.7171613588112T853.3182165605098 903.0571613588111Q853.1982165605098 903.2071613588112 852.9882165605097 903.4471613588112Q852.5982165605097 903.9071613588111 852.0682165605098 904.4271613588112T850.9782165605097 905.4171613588112Q850.7782165605097 905.5871613588112 850.6582165605098 905.6371613588112Q850.5482165605097 905.6971613588112 850.4382165605098 905.6971613588112Q850.3382165605097 905.6971613588112 850.2282165605097 905.6371613588112Q850.1182165605097 905.5871613588112 849.8882165605097 905.4171613588112Q849.2982165605097 904.9471613588112 848.7882165605097 904.4271613588112Q848.2682165605097 903.9071613588112 847.8582165605097 903.4271613588112L847.5582165605097 903.0471613588111Q847.4382165605098 902.9071613588112 847.4382165605098 902.7171613588112M852.7382165605097 908.4171613588112V921.8671613588111Q852.7382165605097 922.3071613588111 852.5582165605097 922.4771613588111Q852.3782165605097 922.6371613588112 851.9382165605098 922.6371613588112H848.9182165605097Q848.4782165605097 922.6371613588112 848.2982165605097 922.4771613588111Q848.1082165605097 922.3071613588111 848.1082165605097 921.8671613588111V908.4171613588112Q848.1082165605097 907.9771613588111 848.2982165605097 907.8071613588111Q848.4782165605097 907.6371613588111 848.9182165605097 907.6371613588111H851.9382165605098Q852.3782165605097 907.6371613588111 852.5582165605097 907.8071613588111T852.7382165605097 908.4171613588112M861.3582165605097 909.3371613588112V910.4271613588112H861.4082165605098Q862.5082165605097 907.3771613588111 865.3682165605097 907.3771613588111Q865.7382165605097 907.3771613588111 865.9682165605097 907.4171613588112Q866.1982165605098 907.4471613588112 866.2882165605097 907.4771613588111Q866.5082165605097 907.5571613588111 866.5082165605097 907.8171613588111V911.347161358811Q866.5082165605097 911.7971613588111 865.9782165605097 911.597161358811Q865.8082165605098 911.5271613588111 865.4782165605097 911.4471613588112Q865.1482165605097 911.3571613588111 864.5582165605098 911.3571613588111Q863.0482165605098 911.3571613588111 862.2082165605098 912.4671613588112Q861.3582165605097 913.5771613588112 861.3582165605097 915.4771613588111V921.8671613588111Q861.3582165605097 922.3071613588111 861.1682165605098 922.4771613588111Q860.9882165605097 922.6371613588112 860.5482165605098 922.6371613588112H857.5282165605097Q857.0882165605097 922.6371613588112 856.9082165605098 922.4771613588111Q856.7282165605097 922.3071613588111 856.7282165605097 921.8671613588111V909.5871613588112Q856.7282165605097 909.2371613588111 856.8682165605097 909.0471613588111Q857.1782165605098 908.6371613588111 857.6082165605097 908.2171613588112Q858.0482165605097 907.7871613588111 858.6782165605098 907.3071613588111Q858.7882165605097 907.2171613588112 858.9082165605097 907.1871613588112T859.1082165605097 907.1571613588112Q859.3182165605097 907.1571613588112 859.5182165605097 907.3071613588111Q860.7382165605097 908.2571613588111 861.2182165605097 908.9271613588112Q861.3582165605096 909.1071613588111 861.3582165605096 909.3371613588112M876.0482165605097 923.0171613588111Q873.5682165605097 923.0171613588111 871.7382165605097 922.2171613588112T868.8982165605097 919.7371613588111Q867.8882165605097 918.0471613588111 867.8882165605097 915.3871613588111Q867.8882165605097 911.3871613588111 869.9382165605097 909.337161358811T875.3882165605097 907.2871613588111Q877.5982165605096 907.2871613588111 879.1282165605097 908.077161358811T881.4582165605098 910.2571613588111T882.2582165605097 913.4371613588112Q882.2582165605097 915.1771613588112 881.3682165605097 915.8671613588111Q880.4682165605097 916.5571613588111 878.7582165605097 916.5571613588111H872.4682165605097Q872.5882165605097 918.0671613588111 873.5782165605098 918.8571613588111T876.2682165605097 919.6471613588112Q877.6182165605097 919.6471613588112 878.4282165605098 919.2471613588111T879.5582165605097 918.6071613588113Q879.8382165605097 918.4071613588112 880.1882165605098 918.4171613588112Q880.4682165605097 918.4171613588112 880.9882165605097 918.5271613588112T882.0182165605097 918.9271613588112Q882.3882165605097 919.1171613588112 882.3882165605097 919.4571613588112Q882.3882165605097 919.6471613588112 882.3182165605098 919.9971613588111Q882.2682165605097 920.2071613588112 882.1682165605098 920.5971613588113Q882.0682165605098 920.9771613588111 881.9082165605098 921.3171613588113Q881.8182165605098 921.4771613588113 881.6282165605097 921.6271613588112Q881.3382165605097 921.8271613588113 880.6782165605098 922.1671613588112Q880.0282165605097 922.5071613588112 878.8982165605098 922.7571613588112Q877.7782165605097 923.0171613588112 876.0482165605098 923.0171613588112M872.4382165605098 913.5571613588113H877.2182165605097Q877.9682165605097 913.5571613588113 877.9682165605097 912.8671613588112Q877.9682165605097 911.8271613588113 877.3182165605098 911.1171613588112Q876.6582165605098 910.4071613588112 875.3582165605097 910.4071613588112Q873.9382165605098 910.4071613588112 873.2682165605097 911.3171613588113Q872.6082165605097 912.2171613588113 872.4382165605098 913.5571613588113M905.0182165605097 922.6371613588112H897.7382165605097Q896.2282165605097 922.6371613588112 895.4482165605098 922.2571613588113T894.3982165605097 921.0171613588113Q894.1182165605097 920.1471613588112 894.1182165605097 918.7171613588113V903.9771613588113Q894.1182165605097 903.5571613588113 894.2682165605097 903.3371613588113Q894.9282165605098 902.3671613588112 896.1182165605097 901.2971613588113Q896.3382165605097 901.1271613588112 896.4982165605097 901.1271613588112Q896.6682165605097 901.1271613588112 896.8582165605097 901.2971613588113Q897.5082165605097 901.8571613588113 897.9482165605098 902.3571613588113Q898.3882165605097 902.8671613588112 898.7082165605098 903.3371613588113Q898.8582165605097 903.5671613588113 898.8582165605097 903.9771613588113V916.9771613588113Q898.8582165605097 917.9571613588113 899.2082165605098 918.3771613588112Q899.5582165605097 918.8071613588113 900.5282165605097 918.8071613588113L905.0182165605097 918.7871613588113Q905.3682165605097 918.7871613588113 905.5482165605097 918.9071613588112Q905.9282165605098 919.1671613588112 906.3382165605097 919.5371613588113Q906.7482165605097 919.8971613588112 907.2082165605098 920.4171613588112Q907.3482165605097 920.6071613588113 907.3482165605097 920.7271613588113Q907.3482165605097 920.8571613588113 907.2082165605098 921.0171613588113Q906.7482165605097 921.5271613588113 906.3382165605097 921.8971613588112Q905.9282165605098 922.2571613588113 905.5482165605097 922.5271613588113Q905.3482165605097 922.6371613588112 905.0182165605097 922.6371613588112M916.3882165605097 923.0171613588113Q913.9082165605098 923.0171613588113 912.0782165605098 922.2171613588113T909.2382165605097 919.7371613588112Q908.2282165605097 918.0471613588113 908.2282165605097 915.3871613588112Q908.2282165605097 911.3871613588112 910.2782165605097 909.3371613588113T915.7282165605097 907.2871613588112Q917.9382165605098 907.2871613588112 919.4682165605097 908.0771613588113T921.7982165605097 910.2571613588112T922.5982165605097 913.4371613588112Q922.5982165605097 915.1771613588112 921.7082165605098 915.8671613588112Q920.8082165605098 916.5571613588113 919.0982165605097 916.5571613588113H912.8182165605097Q912.9282165605098 918.0671613588113 913.9182165605097 918.8571613588113T916.6082165605097 919.6471613588112Q917.9582165605098 919.6471613588112 918.7682165605097 919.2471613588114T919.9082165605097 918.6071613588113Q920.1782165605097 918.4071613588113 920.5382165605097 918.4171613588113Q920.8082165605097 918.4171613588113 921.3282165605098 918.5271613588113T922.3682165605097 918.9271613588113Q922.7282165605097 919.1171613588112 922.7282165605097 919.4571613588113Q922.7282165605097 919.6471613588112 922.6582165605098 919.9971613588114Q922.6182165605097 920.2071613588113 922.5082165605098 920.5971613588113Q922.4082165605098 920.9771613588114 922.2482165605098 921.3171613588113Q922.1582165605098 921.4771613588114 921.9682165605099 921.6271613588113Q921.6782165605098 921.8271613588113 921.0282165605098 922.1671613588114Q920.3682165605098 922.5071613588113 919.2482165605098 922.7571613588113Q918.1182165605098 923.0171613588113 916.3882165605098 923.0171613588113M912.7882165605099 913.5571613588113H917.5582165605099Q918.3082165605099 913.5571613588113 918.3082165605099 912.8671613588114Q918.3082165605099 911.8271613588113 917.6582165605099 911.1171613588114T915.6982165605099 910.4071613588114Q914.2782165605099 910.4071613588114 913.6082165605098 911.3171613588114Q912.9482165605099 912.2171613588114 912.7882165605099 913.5571613588114M929.7082165605099 923.0171613588113Q927.5482165605099 923.0171613588113 926.2782165605099 921.8071613588114Q925.0182165605099 920.5971613588115 925.0182165605099 918.4771613588114Q925.0182165605099 917.3771613588115 925.4182165605099 916.4371613588114Q925.8182165605099 915.4871613588114 926.8282165605099 914.7671613588113Q927.8282165605099 914.0371613588113 929.6382165605099 913.5971613588114T934.2582165605099 913.0871613588114Q934.2582165605099 911.7571613588113 933.5882165605099 911.1671613588114Q932.9282165605099 910.5771613588114 931.5982165605099 910.5771613588114Q930.3882165605099 910.5771613588114 929.6282165605098 910.9871613588114T928.6782165605099 911.5471613588114Q928.4682165605099 911.7271613588114 928.1782165605099 911.6771613588114Q927.7882165605099 911.6171613588115 927.3382165605099 911.4771613588114Q926.8882165605099 911.3271613588115 926.3782165605099 911.1371613588115Q926.3082165605099 911.1071613588115 926.2182165605099 911.0471613588115Q926.1282165605099 910.9771613588115 926.1182165605098 910.8471613588115Q926.1182165605098 910.7671613588116 926.1282165605098 910.6571613588114L926.1982165605099 910.2571613588116Q926.2582165605098 909.9671613588115 926.3782165605098 909.5371613588115Q926.4982165605098 909.0971613588115 926.5982165605099 908.8671613588115Q926.7282165605098 908.6171613588115 927.0382165605099 908.3971613588114Q927.2882165605099 908.1971613588114 928.5482165605099 907.7371613588114Q929.8082165605099 907.2871613588114 932.1982165605099 907.2871613588114Q938.7682165605098 907.2871613588114 938.7682165605098 913.6871613588114V921.9771613588114Q938.7682165605098 922.2571613588113 938.6182165605098 922.4571613588114Q938.4682165605099 922.6471613588114 938.0982165605099 922.6471613588114H935.8982165605099Q935.6682165605099 922.6471613588114 935.4782165605098 922.5871613588115Q935.2982165605099 922.5171613588114 935.1382165605099 922.3271613588115L934.2282165605098 921.1571613588114H934.1282165605098Q933.4582165605099 922.1371613588115 932.3182165605099 922.5771613588115T929.7082165605099 923.0171613588114M931.3182165605099 919.6171613588115Q932.6582165605098 919.6171613588115 933.3482165605099 918.9271613588114Q934.0382165605098 918.2471613588115 934.2282165605098 917.5071613588115V915.8871613588115Q932.1982165605099 915.8871613588115 931.1782165605098 916.1971613588114Q930.1582165605098 916.5171613588114 929.8182165605098 917.0171613588114Q929.4882165605098 917.5271613588114 929.4882165605098 918.1071613588115Q929.4882165605098 918.9571613588114 930.0082165605098 919.2871613588114Q930.5382165605098 919.6171613588115 931.3182165605098 919.6171613588115M947.3582165605098 909.3371613588115V910.4271613588114H947.4182165605098Q948.5082165605098 907.3771613588115 951.3682165605098 907.3771613588115Q951.7382165605098 907.3771613588115 951.9682165605099 907.4171613588114Q952.2082165605099 907.4471613588114 952.2882165605098 907.4771613588114Q952.5082165605098 907.5571613588114 952.5082165605098 907.8171613588114V911.3471613588114Q952.5082165605098 911.7971613588113 951.9882165605098 911.5971613588114Q951.8082165605099 911.5271613588113 951.4782165605098 911.4471613588114Q951.1482165605099 911.3571613588115 950.5582165605099 911.3571613588115Q949.0582165605099 911.3571613588115 948.2082165605099 912.4671613588114T947.3582165605098 915.4771613588114V921.8671613588115Q947.3582165605098 922.3071613588114 947.1682165605098 922.4771613588114Q946.9882165605098 922.6371613588115 946.5482165605098 922.6371613588115H943.5282165605098Q943.0882165605099 922.6371613588115 942.9082165605098 922.4771613588114Q942.7282165605098 922.3071613588114 942.7282165605098 921.8671613588115V909.5871613588115Q942.7282165605098 909.2371613588114 942.8682165605098 909.0471613588114Q943.1782165605098 908.6371613588115 943.6082165605098 908.2171613588114Q944.0482165605098 907.7871613588114 944.6782165605098 907.3071613588114Q944.7882165605098 907.2171613588114 944.9082165605098 907.1871613588114T945.1182165605098 907.1571613588114Q945.3182165605098 907.1571613588114 945.5282165605098 907.3071613588114Q946.7382165605098 908.2571613588113 947.2182165605099 908.9271613588114Q947.3582165605098 909.1071613588115 947.3582165605098 909.3371613588115M969.1982165605098 913.3071613588115V921.8671613588115Q969.1982165605098 922.3071613588115 969.0082165605098 922.4771613588115Q968.8282165605098 922.6371613588115 968.3882165605098 922.6371613588115H965.3682165605098Q964.9282165605098 922.6371613588115 964.7482165605098 922.4771613588115Q964.5682165605098 922.3071613588115 964.5682165605098 921.8671613588115V914.0671613588115Q964.5682165605098 912.4771613588115 963.8882165605098 911.7471613588115Q963.2182165605097 911.0071613588115 962.0582165605098 911.0071613588115Q960.9082165605098 911.0071613588115 960.2782165605098 911.5071613588115Q959.6582165605098 912.0071613588115 959.3182165605099 912.7671613588114V921.8671613588115Q959.3182165605099 922.3071613588115 959.1382165605098 922.4771613588115Q958.9582165605099 922.6371613588115 958.5182165605098 922.6371613588115H955.4982165605098Q955.0582165605099 922.6371613588115 954.8782165605098 922.4771613588115Q954.6982165605099 922.3071613588115 954.6982165605099 921.8671613588115V909.5871613588115Q954.6982165605099 909.2371613588115 954.8382165605099 909.0471613588115Q955.1482165605098 908.6371613588115 955.5782165605099 908.2171613588115Q956.0082165605098 907.7871613588115 956.6382165605098 907.3071613588115Q956.8282165605099 907.1571613588114 957.0082165605098 907.1571613588114Q957.1682165605099 907.1571613588114 957.3782165605098 907.3071613588115Q957.9882165605098 907.7871613588115 958.4282165605099 908.2271613588115T959.2082165605099 909.1371613588115H959.2782165605098Q959.5282165605098 908.8171613588115 960.0282165605098 908.3771613588115Q960.5282165605098 907.9471613588115 961.4282165605098 907.6071613588115Q962.3282165605098 907.2771613588116 963.7282165605098 907.2771613588116Q965.1082165605098 907.2771613588116 966.3582165605098 907.8271613588115Q967.5982165605099 908.3871613588116 968.3982165605098 909.7071613588116T969.1982165605099 913.3071613588115M972.4782165605098 902.7171613588116Q972.4782165605098 902.5271613588116 972.5982165605099 902.3871613588117Q972.7082165605099 902.2371613588116 972.8982165605098 901.9971613588116Q973.3082165605099 901.5371613588117 973.8582165605098 901.0171613588116Q974.3982165605098 900.4971613588116 974.9482165605098 900.0071613588116Q975.3082165605098 899.7271613588116 975.4782165605097 899.7271613588116Q975.6582165605098 899.7271613588116 976.0182165605098 900.0071613588116Q977.2082165605098 901.0371613588115 978.0482165605098 901.9971613588116Q978.2382165605097 902.2171613588116 978.3582165605097 902.3771613588117Q978.4782165605097 902.5271613588116 978.4782165605097 902.7171613588116T978.3582165605097 903.0571613588115T978.0282165605098 903.4471613588116Q977.6382165605098 903.9071613588115 977.1082165605097 904.4271613588116T976.0182165605098 905.4171613588117Q975.8182165605098 905.5871613588116 975.6982165605098 905.6371613588117Q975.5782165605098 905.6971613588116 975.4782165605097 905.6971613588116T975.2682165605098 905.6371613588117Q975.1582165605098 905.5871613588116 974.9282165605098 905.4171613588117Q974.3382165605099 904.9471613588116 973.8282165605098 904.4271613588116Q973.3082165605098 903.9071613588117 972.8982165605098 903.4271613588116L972.5982165605097 903.0471613588115Q972.4782165605097 902.9071613588117 972.4782165605097 902.7171613588116M977.7782165605098 908.4171613588117V921.8671613588116Q977.7782165605098 922.3071613588115 977.5982165605097 922.4771613588116Q977.4182165605098 922.6371613588117 976.9782165605097 922.6371613588117H973.9582165605098Q973.5182165605098 922.6371613588117 973.3382165605097 922.4771613588116Q973.1482165605098 922.3071613588115 973.1482165605098 921.8671613588116V908.4171613588117Q973.1482165605098 907.9771613588116 973.3382165605097 907.8071613588115Q973.5182165605098 907.6371613588116 973.9582165605098 907.6371613588116H976.9782165605097Q977.4182165605098 907.6371613588116 977.5982165605097 907.8071613588115T977.7782165605098 908.4171613588117M996.2682165605098 913.3071613588115V921.8671613588116Q996.2682165605098 922.3071613588115 996.0782165605098 922.4771613588116Q995.8982165605098 922.6371613588117 995.4582165605098 922.6371613588117H992.4382165605098Q992.0082165605098 922.6371613588117 991.8182165605098 922.4771613588116Q991.6382165605098 922.3071613588115 991.6382165605098 921.8671613588116V914.0671613588115Q991.6382165605098 912.4771613588116 990.9682165605097 911.7471613588116Q990.2882165605098 911.0071613588116 989.1282165605098 911.0071613588116Q987.9782165605098 911.0071613588116 987.3482165605099 911.5071613588116Q986.7282165605098 912.0071613588116 986.3882165605098 912.7671613588116V921.8671613588116Q986.3882165605098 922.3071613588115 986.2082165605099 922.4771613588116Q986.0282165605098 922.6371613588117 985.5882165605099 922.6371613588117H982.5682165605099Q982.1282165605098 922.6371613588117 981.9482165605099 922.4771613588116Q981.7682165605098 922.3071613588115 981.7682165605098 921.8671613588116V909.5871613588116Q981.7682165605098 909.2371613588116 981.9082165605098 909.0471613588115Q982.2182165605099 908.6371613588116 982.6482165605098 908.2171613588116Q983.0782165605099 907.7871613588115 983.7082165605099 907.3071613588115Q983.8982165605098 907.1571613588117 984.0782165605099 907.1571613588117Q984.2382165605098 907.1571613588117 984.4482165605099 907.3071613588115Q985.0582165605099 907.7871613588115 985.4982165605098 908.2271613588116T986.2782165605098 909.1371613588117H986.3482165605099Q986.5982165605099 908.8171613588116 987.0982165605099 908.3771613588117Q987.5982165605099 907.9471613588116 988.4982165605098 907.6071613588117Q989.3982165605098 907.2771613588117 990.7982165605098 907.2771613588117Q992.1782165605098 907.2771613588117 993.4282165605098 907.8271613588117Q994.6682165605098 908.3871613588117 995.4682165605099 909.7071613588116T996.2682165605098 913.3071613588118M1014.7182165605099 909.0571613588118V920.9371613588116Q1014.7182165605099 925.2171613588116 1012.2882165605098 927.4571613588116Q1009.8482165605099 929.6971613588116 1005.5982165605099 929.6971613588116Q1003.8382165605099 929.6971613588116 1002.8182165605099 929.4371613588116Q1001.7882165605099 929.1871613588116 1001.2582165605098 928.9471613588116Q1000.9282165605099 928.7871613588117 1000.8182165605099 928.6171613588117Q1000.6782165605099 928.3771613588117 1000.4882165605098 927.9271613588116Q1000.3082165605099 927.4671613588117 1000.1482165605099 926.9271613588116Q1000.1082165605098 926.7271613588117 1000.1382165605099 926.6171613588117Q1000.1882165605099 926.4771613588117 1000.3482165605099 926.3171613588117Q1000.6182165605098 926.0471613588118 1001.1082165605098 925.6971613588116T1001.8582165605098 925.2471613588117Q1002.1382165605098 925.1371613588117 1002.3782165605098 925.2771613588117Q1002.7582165605098 925.4771613588116 1003.4682165605099 925.7371613588116Q1004.1782165605098 925.9871613588116 1005.4682165605099 925.9871613588116Q1007.5182165605098 925.9871613588116 1008.8082165605098 924.9371613588116Q1010.0982165605099 923.8771613588117 1010.0982165605099 921.6871613588116V921.1571613588117H1010.0382165605098Q1009.7182165605099 921.5671613588117 1009.1982165605099 921.9971613588116Q1008.6882165605099 922.4171613588117 1007.8782165605098 922.7071613588116Q1007.0582165605099 923.0071613588116 1005.7882165605099 923.0071613588116Q1003.5782165605099 923.0071613588116 1002.1582165605099 922.0471613588116Q1000.7482165605098 921.0871613588117 1000.0782165605099 919.3971613588117Q999.4182165605099 917.7171613588116 999.4182165605099 915.5571613588118Q999.4182165605099 913.2071613588116 1000.1882165605099 911.3271613588117Q1000.9682165605099 909.4571613588116 1002.7982165605099 908.3571613588117Q1004.6282165605098 907.2671613588117 1007.8082165605099 907.2671613588117Q1009.7182165605099 907.2671613588117 1011.0082165605098 907.5471613588116Q1012.3082165605099 907.8271613588116 1013.1882165605099 908.2371613588116T1014.7182165605099 909.0571613588116M1007.6482165605098 910.8171613588116Q1005.9482165605099 910.8171613588116 1005.0582165605099 911.9571613588116Q1004.1582165605099 913.0971613588116 1004.1582165605099 915.5071613588116Q1004.1582165605099 919.2671613588116 1007.2682165605099 919.2671613588116Q1008.4782165605098 919.2671613588116 1009.1282165605099 918.7671613588116Q1009.7682165605099 918.2671613588116 1010.09821656051 917.5071613588116V911.4571613588116Q1009.7682165605099 911.2271613588116 1009.1882165605099 911.0171613588116Q1008.59821656051 910.8171613588116 1007.6482165605099 910.8171613588116M1020.3182165605099 926.9071613588117L1017.4282165605099 925.7471613588116Q1017.9182165605099 924.7371613588116 1018.3082165605099 922.9771613588116Q1018.7082165605099 921.2171613588116 1018.7082165605099 919.2771613588116V917.9971613588116Q1018.7082165605099 917.5871613588116 1019.1882165605099 917.5871613588116H1022.5782165605099Q1023.0682165605099 917.5871613588116 1023.0682165605099 918.1271613588117Q1023.0682165605099 921.1871613588116 1022.1982165605099 923.3871613588117Q1021.3182165605099 925.5871613588116 1020.3182165605099 926.9071613588117M1044.26821656051 919.0571613588115Q1045.3382165605099 919.0571613588115 1045.94821656051 918.8371613588115T1046.88821656051 918.2871613588115Q1047.2282165605097 917.9671613588116 1047.4782165605097 917.6471613588116Q1047.7082165605098 917.3571613588115 1047.8682165605098 917.2071613588116Q1048.0182165605097 917.0571613588115 1048.29821656051 916.9971613588116Q1048.52821656051 916.9271613588116 1049.04821656051 916.9071613588117T1050.0882165605099 916.8871613588117T1050.8182165605099 916.9171613588117Q1051.1282165605098 916.9271613588116 1051.23821656051 917.0271613588116Q1051.3582165605098 917.1371613588117 1051.38821656051 917.4671613588116Q1051.42821656051 917.9371613588116 1051.4382165605098 918.5871613588116Q1051.44821656051 919.2271613588116 1051.4182165605098 919.6971613588116Q1051.3982165605098 919.8471613588116 1051.36821656051 919.9471613588116Q1051.3282165605099 920.0471613588116 1051.2082165605098 920.2571613588116Q1051.0682165605099 920.4871613588116 1050.63821656051 920.9371613588116Q1050.21821656051 921.3771613588117 1049.3982165605098 921.8571613588117T1047.27821656051 922.6671613588117Q1045.9782165605097 923.0071613588116 1044.0982165605099 923.0071613588116Q1042.0682165605099 923.0071613588116 1040.3182165605099 922.4871613588116Q1038.55821656051 921.9671613588116 1037.22821656051 920.7371613588116Q1035.90821656051 919.5071613588116 1035.16821656051 917.4071613588117Q1034.42821656051 915.3171613588117 1034.42821656051 912.1871613588116Q1034.42821656051 908.6971613588116 1035.6382165605098 906.2571613588116Q1036.8382165605099 903.8171613588116 1039.0682165605099 902.5471613588116Q1041.29821656051 901.2671613588117 1044.3382165605099 901.2671613588117Q1046.4782165605097 901.2671613588117 1047.77821656051 901.7071613588116T1049.74821656051 902.7371613588116Q1050.4182165605098 903.3371613588117 1050.69821656051 903.7771613588117Q1050.79821656051 903.9371613588116 1050.8482165605099 904.0571613588116Q1050.88821656051 904.1871613588116 1050.90821656051 904.4471613588116Q1050.94821656051 904.7971613588116 1050.92821656051 905.4771613588116Q1050.90821656051 906.1471613588117 1050.8182165605099 906.6571613588117Q1050.75821656051 906.9871613588116 1050.6282165605098 907.0871613588116Q1050.5682165605099 907.1471613588117 1050.4182165605098 907.1871613588116Q1050.27821656051 907.2271613588116 1049.9782165605097 907.2271613588116Q1049.50821656051 907.2271613588116 1048.92821656051 907.1971613588116Q1048.3382165605099 907.1571613588117 1048.04821656051 907.1171613588117Q1047.69821656051 907.0571613588118 1047.53821656051 906.9471613588116T1047.21821656051 906.5971613588117Q1046.94821656051 906.2171613588116 1046.30821656051 905.7271613588116Q1045.65821656051 905.2271613588116 1044.17821656051 905.2271613588116Q1042.0982165605099 905.2271613588116 1040.75821656051 906.8271613588117Q1039.4082165605098 908.4371613588116 1039.4082165605098 912.0171613588117T1040.8182165605099 917.3271613588117T1044.2682165605097 919.0571613588118M1061.6582165605098 923.0171613588117Q1059.1782165605098 923.0171613588117 1057.3482165605099 922.2171613588116T1054.50821656051 919.7371613588116Q1053.4982165605097 918.0471613588116 1053.4982165605097 915.3871613588117Q1053.4982165605097 911.3871613588117 1055.54821656051 909.3371613588116T1060.9982165605097 907.2871613588115Q1063.2082165605098 907.2871613588115 1064.73821656051 908.0771613588116T1067.0682165605099 910.2571613588116T1067.8682165605098 913.4371613588116Q1067.8682165605098 915.1771613588116 1066.9782165605097 915.8671613588117Q1066.0782165605099 916.5571613588116 1064.3682165605098 916.5571613588116H1058.0782165605099Q1058.19821656051 918.0671613588116 1059.1882165605098 918.8571613588117T1061.8782165605098 919.6471613588117Q1063.2282165605097 919.6471613588117 1064.03821656051 919.2471613588117T1065.1682165605098 918.6071613588117Q1065.44821656051 918.4071613588117 1065.79821656051 918.4171613588117Q1066.0782165605099 918.4171613588117 1066.5982165605099 918.5271613588118T1067.63821656051 918.9271613588116Q1067.99821656051 919.1171613588117 1067.99821656051 919.4571613588116Q1067.99821656051 919.6471613588117 1067.92821656051 919.9971613588117Q1067.8782165605098 920.2071613588116 1067.77821656051 920.5971613588117Q1067.67821656051 920.9771613588117 1067.51821656051 921.3171613588117Q1067.42821656051 921.4771613588118 1067.23821656051 921.6271613588117Q1066.94821656051 921.8271613588117 1066.2882165605101 922.1671613588118Q1065.63821656051 922.5071613588118 1064.50821656051 922.7571613588118Q1063.38821656051 923.0171613588118 1061.65821656051 923.0171613588118M1058.04821656051 913.5571613588118H1062.82821656051Q1063.57821656051 913.5571613588118 1063.57821656051 912.8671613588117Q1063.57821656051 911.8271613588117 1062.92821656051 911.1171613588117Q1062.26821656051 910.4071613588118 1060.96821656051 910.4071613588118Q1059.54821656051 910.4071613588118 1058.87821656051 911.3171613588117Q1058.21821656051 912.2171613588118 1058.04821656051 913.5571613588118M1076.0682165605099 921.5471613588118L1073.00821656051 922.9471613588119Q1072.69821656051 923.0771613588117 1072.5682165605099 923.0771613588117T1072.2882165605101 922.9771613588118Q1071.9582165605102 922.7471613588118 1071.5182165605102 921.8271613588117Q1071.08821656051 920.9171613588118 1071.08821656051 919.0071613588118V902.0471613588118Q1071.08821656051 901.6971613588119 1071.23821656051 901.5071613588118Q1071.84821656051 900.6971613588119 1073.0382165605101 899.7571613588118Q1073.2482165605102 899.6171613588118 1073.40821656051 899.6171613588118Q1073.59821656051 899.6171613588118 1073.7682165605102 899.7571613588118Q1074.39821656051 900.2471613588118 1074.82821656051 900.6671613588119Q1075.2682165605102 901.0971613588118 1075.56821656051 901.5071613588118Q1075.71821656051 901.6971613588119 1075.71821656051 902.0471613588118V918.1171613588118Q1075.71821656051 919.0771613588117 1075.87821656051 919.7671613588118Q1076.0382165605101 920.4471613588119 1076.25821656051 920.8571613588117Q1076.50821656051 921.3371613588117 1076.06821656051 921.5471613588118M1087.08821656051 923.0171613588118Q1084.60821656051 923.0171613588118 1082.77821656051 922.2171613588118T1079.9382165605102 919.7371613588118Q1078.92821656051 918.0471613588118 1078.92821656051 915.3871613588117Q1078.92821656051 911.3871613588117 1080.9782165605102 909.3371613588117T1086.42821656051 907.2871613588118Q1088.63821656051 907.2871613588118 1090.1682165605102 908.0771613588117T1092.4982165605102 910.2571613588118T1093.2982165605101 913.4371613588117Q1093.2982165605101 915.1771613588118 1092.40821656051 915.8671613588117Q1091.5082165605102 916.5571613588118 1089.7982165605101 916.5571613588118H1083.50821656051Q1083.62821656051 918.0671613588117 1084.61821656051 918.8571613588117T1087.3082165605101 919.6471613588118Q1088.65821656051 919.6471613588118 1089.46821656051 919.2471613588118T1090.59821656051 918.6071613588118Q1090.87821656051 918.4071613588119 1091.2282165605102 918.4171613588119Q1091.50821656051 918.4171613588119 1092.0282165605101 918.5271613588118T1093.0582165605101 918.9271613588119Q1093.42821656051 919.1171613588118 1093.42821656051 919.4571613588118Q1093.42821656051 919.6471613588118 1093.35821656051 919.9971613588118Q1093.3082165605101 920.2071613588118 1093.2082165605102 920.5971613588118Q1093.10821656051 920.9771613588118 1092.94821656051 921.3171613588119Q1092.8582165605103 921.4771613588118 1092.6682165605102 921.6271613588119Q1092.3782165605103 921.8271613588118 1091.7182165605102 922.1671613588119Q1091.0682165605103 922.5071613588118 1089.9382165605102 922.7571613588118Q1088.8182165605103 923.0171613588118 1087.0882165605103 923.0171613588118M1083.4782165605102 913.5571613588119H1088.2582165605102Q1089.0082165605102 913.5571613588119 1089.0082165605102 912.8671613588119Q1089.0082165605102 911.8271613588118 1088.3582165605103 911.1171613588119Q1087.69821656051 910.4071613588119 1086.3982165605103 910.4071613588119Q1084.9782165605102 910.4071613588119 1084.3082165605101 911.317161358812Q1083.6482165605103 912.2171613588118 1083.4782165605102 913.557161358812M1103.4082165605103 923.0071613588119Q1101.5182165605102 923.0071613588119 1100.2282165605102 922.7271613588119T1098.0582165605101 922.037161358812T1096.5182165605102 921.217161358812V902.047161358812Q1096.5182165605102 901.6971613588119 1096.6682165605102 901.5071613588119Q1097.2782165605101 900.6971613588119 1098.4682165605102 899.7571613588119Q1098.67821656051 899.6171613588119 1098.8382165605103 899.6171613588119Q1099.0282165605101 899.6171613588119 1099.1982165605102 899.7571613588119Q1099.82821656051 900.2471613588119 1100.2582165605102 900.6671613588119Q1100.6982165605102 901.097161358812 1100.9982165605102 901.5071613588119Q1101.1482165605103 901.6971613588119 1101.1482165605103 902.047161358812V909.1471613588119H1101.2082165605102Q1101.7982165605101 908.4071613588119 1102.8382165605103 907.837161358812Q1103.8782165605103 907.277161358812 1105.7382165605102 907.277161358812Q1107.81821656051 907.277161358812 1109.15821656051 908.2371613588119Q1110.5082165605102 909.1971613588119 1111.1682165605102 910.8671613588119Q1111.82821656051 912.547161358812 1111.82821656051 914.717161358812Q1111.82821656051 917.057161358812 1111.0482165605104 918.947161358812Q1110.2782165605104 920.827161358812 1108.4382165605102 921.917161358812T1103.4082165605103 923.007161358812M1103.59821656051 919.467161358812Q1105.2982165605104 919.467161358812 1106.1882165605102 918.327161358812T1107.07821656051 915.087161358812Q1107.07821656051 912.947161358812 1106.2782165605101 911.9771613588119Q1105.4882165605102 911.0071613588119 1103.9782165605102 911.0071613588119Q1102.7582165605102 911.0071613588119 1102.11821656051 911.5071613588119Q1101.4882165605102 912.0071613588119 1101.1482165605103 912.7671613588119V918.817161358812Q1101.46821656051 919.057161358812 1102.06821656051 919.2571613588119Q1102.65821656051 919.4671613588118 1103.59821656051 919.4671613588118M1119.60821656051 909.337161358812V910.4271613588119H1119.6682165605102Q1120.75821656051 907.3771613588119 1123.61821656051 907.3771613588119Q1123.98821656051 907.3771613588119 1124.21821656051 907.4171613588119Q1124.4582165605102 907.4471613588119 1124.5382165605101 907.4771613588118Q1124.7582165605102 907.5571613588119 1124.7582165605102 907.8171613588119V911.3471613588118Q1124.7582165605102 911.7971613588118 1124.2382165605102 911.5971613588118Q1124.0582165605101 911.5271613588118 1123.7282165605102 911.4471613588119Q1123.3982165605103 911.3571613588119 1122.81821656051 911.3571613588119Q1121.3082165605101 911.3571613588119 1120.4582165605102 912.4671613588118T1119.60821656051 915.4771613588118V921.8671613588119Q1119.60821656051 922.3071613588119 1119.4182165605102 922.4771613588118Q1119.23821656051 922.6371613588119 1118.7982165605101 922.6371613588119H1115.7782165605101Q1115.34821656051 922.6371613588119 1115.15821656051 922.4771613588118Q1114.9782165605102 922.3071613588119 1114.9782165605102 921.8671613588119V909.587161358812Q1114.9782165605102 909.2371613588118 1115.12821656051 909.0471613588119Q1115.42821656051 908.6371613588119 1115.86821656051 908.2171613588118Q1116.2982165605101 907.7871613588119 1116.92821656051 907.3071613588119Q1117.0382165605101 907.2171613588118 1117.15821656051 907.1871613588119T1117.36821656051 907.1571613588119Q1117.56821656051 907.1571613588119 1117.7782165605101 907.3071613588119Q1118.98821656051 908.2571613588118 1119.4782165605102 908.9271613588119Q1119.60821656051 909.1071613588119 1119.60821656051 909.337161358812M1130.82821656051 923.0171613588119Q1128.67821656051 923.0171613588119 1127.40821656051 921.807161358812T1126.13821656051 918.4771613588119Q1126.13821656051 917.3771613588119 1126.5382165605101 916.4371613588119Q1126.94821656051 915.4871613588119 1127.94821656051 914.7671613588119Q1128.94821656051 914.0371613588119 1130.7582165605102 913.597161358812T1135.3782165605103 913.087161358812Q1135.3782165605103 911.7571613588119 1134.71821656051 911.1671613588119Q1134.0482165605101 910.577161358812 1132.71821656051 910.577161358812Q1131.5182165605102 910.577161358812 1130.7582165605102 910.9871613588119Q1129.9882165605102 911.3971613588119 1129.7982165605101 911.547161358812Q1129.59821656051 911.7271613588119 1129.2982165605101 911.6771613588119Q1128.90821656051 911.6171613588119 1128.4582165605102 911.4771613588119Q1128.0182165605102 911.327161358812 1127.4982165605102 911.1371613588119Q1127.4282165605102 911.1071613588119 1127.3382165605103 911.047161358812Q1127.2482165605102 910.977161358812 1127.2382165605102 910.847161358812Q1127.2382165605102 910.767161358812 1127.2482165605102 910.657161358812Q1127.2682165605102 910.547161358812 1127.32821656051 910.257161358812T1127.4982165605102 909.537161358812Q1127.61821656051 909.097161358812 1127.7182165605102 908.8671613588119Q1127.84821656051 908.6171613588119 1128.15821656051 908.3971613588119Q1128.40821656051 908.197161358812 1129.6682165605102 907.7371613588119Q1130.92821656051 907.287161358812 1133.31821656051 907.287161358812Q1139.8982165605103 907.287161358812 1139.8982165605103 913.6871613588119V921.9771613588119Q1139.8982165605103 922.2571613588119 1139.73821656051 922.457161358812Q1139.58821656051 922.6471613588119 1139.21821656051 922.6471613588119H1137.0182165605102Q1136.7882165605101 922.6471613588119 1136.60821656051 922.587161358812Q1136.4182165605102 922.517161358812 1136.25821656051 922.327161358812L1135.34821656051 921.1571613588119H1135.2482165605102Q1134.57821656051 922.1371613588119 1133.43821656051 922.577161358812Q1132.3082165605101 923.017161358812 1130.82821656051 923.017161358812M1132.43821656051 919.6171613588119Q1133.7882165605101 919.6171613588119 1134.4782165605102 918.927161358812Q1135.15821656051 918.247161358812 1135.34821656051 917.507161358812V915.8871613588119Q1133.31821656051 915.8871613588119 1132.29821656051 916.197161358812Q1131.27821656051 916.517161358812 1130.94821656051 917.017161358812Q1130.60821656051 917.527161358812 1130.60821656051 918.1071613588119Q1130.60821656051 918.957161358812 1131.13821656051 919.287161358812Q1131.65821656051 919.6171613588119 1132.43821656051 919.6171613588119M1149.77821656051 923.0071613588119Q1144.88821656051 923.0071613588119 1144.88821656051 917.9271613588119V911.057161358812H1143.23821656051Q1142.79821656051 911.057161358812 1142.62821656051 910.8671613588119Q1142.45821656051 910.6871613588119 1142.45821656051 910.2471613588119V908.4471613588119Q1142.45821656051 908.0071613588119 1142.62821656051 907.827161358812Q1142.79821656051 907.6371613588119 1143.23821656051 907.6371613588119H1144.88821656051V905.2871613588119Q1144.88821656051 904.9271613588119 1145.0382165605101 904.7371613588118Q1145.64821656051 903.9371613588119 1146.8382165605099 902.9971613588118Q1147.0382165605101 902.847161358812 1147.20821656051 902.847161358812T1147.5582165605101 902.9971613588118Q1148.18821656051 903.4771613588118 1148.61821656051 903.9071613588119Q1149.04821656051 904.327161358812 1149.35821656051 904.7371613588118Q1149.50821656051 904.9271613588119 1149.50821656051 905.2871613588119V907.6371613588119H1152.09821656051Q1152.5382165605101 907.6371613588119 1152.70821656051 907.827161358812Q1152.86821656051 908.0071613588119 1152.86821656051 908.4471613588119V910.2471613588119Q1152.86821656051 910.6871613588119 1152.70821656051 910.8671613588119Q1152.5382165605101 911.057161358812 1152.09821656051 911.057161358812H1149.50821656051V917.1171613588119Q1149.50821656051 919.467161358812 1151.19821656051 919.467161358812Q1151.46821656051 919.467161358812 1151.68821656051 919.4071613588119Q1151.90821656051 919.3571613588119 1152.0682165605099 919.297161358812Q1152.37821656051 919.1871613588119 1152.4982165605102 919.217161358812Q1152.62821656051 919.2471613588119 1152.7282165605102 919.537161358812L1153.57821656051 921.807161358812Q1153.7082165605102 922.1771613588119 1153.39821656051 922.337161358812Q1153.17821656051 922.4371613588119 1152.33821656051 922.7171613588118Q1151.4982165605102 923.0071613588119 1149.77821656051 923.0071613588119M1163.37821656051 923.0171613588119Q1160.89821656051 923.0171613588119 1159.06821656051 922.2171613588118T1156.2282165605102 919.7371613588118Q1155.21821656051 918.0471613588119 1155.21821656051 915.3871613588119Q1155.21821656051 911.3871613588119 1157.2682165605102 909.3371613588118T1162.71821656051 907.2871613588118Q1164.92821656051 907.2871613588118 1166.4582165605102 908.0771613588118T1168.7882165605101 910.2571613588118T1169.58821656051 913.4371613588119Q1169.58821656051 915.1771613588119 1168.6882165605102 915.8671613588119Q1167.7982165605101 916.5571613588119 1166.08821656051 916.5571613588119H1159.7982165605101Q1159.9182165605102 918.0671613588119 1160.90821656051 918.8571613588119T1163.59821656051 919.6471613588119Q1164.9382165605102 919.6471613588119 1165.7582165605102 919.2471613588119Q1166.56821656051 918.847161358812 1166.88821656051 918.6071613588119Q1167.1682165605102 918.4071613588119 1167.5182165605102 918.4171613588119Q1167.7982165605101 918.4171613588119 1168.31821656051 918.527161358812T1169.34821656051 918.9271613588119Q1169.71821656051 919.1171613588119 1169.71821656051 919.4571613588118Q1169.71821656051 919.6471613588119 1169.6482165605103 919.9971613588119Q1169.59821656051 920.2071613588118 1169.4982165605102 920.597161358812Q1169.3982165605103 920.9771613588119 1169.2382165605102 921.317161358812Q1169.1482165605103 921.477161358812 1168.9582165605102 921.6271613588119Q1168.6682165605102 921.827161358812 1168.0082165605102 922.167161358812Q1167.3582165605103 922.507161358812 1166.2282165605102 922.757161358812Q1165.1082165605103 923.017161358812 1163.3782165605103 923.017161358812M1159.7682165605102 913.557161358812H1164.5482165605101Q1165.2982165605101 913.557161358812 1165.2982165605101 912.8671613588119Q1165.2982165605101 911.827161358812 1164.63821656051 911.1171613588119Q1163.9882165605102 910.407161358812 1162.6882165605102 910.407161358812Q1161.2682165605102 910.407161358812 1160.59821656051 911.317161358812Q1159.92821656051 912.2171613588121 1159.7682165605102 913.557161358812M1184.61821656051 921.277161358812Q1183.9882165605102 920.0971613588121 1183.32821656051 918.267161358812Q1182.6682165605102 916.4471613588121 1182.0682165605103 914.3471613588121Q1181.4682165605102 912.257161358812 1180.9982165605102 910.2171613588121Q1180.5282165605101 908.1671613588121 1180.2582165605102 906.497161358812T1179.9882165605102 903.887161358812Q1179.9882165605102 903.507161358812 1180.1482165605103 903.287161358812Q1180.4882165605102 902.817161358812 1180.9782165605102 902.317161358812Q1181.4682165605102 901.807161358812 1182.13821656051 901.257161358812Q1182.3582165605103 901.077161358812 1182.5482165605101 901.077161358812T1182.92821656051 901.257161358812Q1183.61821656051 901.807161358812 1184.09821656051 902.317161358812Q1184.58821656051 902.817161358812 1184.92821656051 903.287161358812Q1185.08821656051 903.507161358812 1185.08821656051 903.937161358812V903.8771613588119Q1185.08821656051 904.847161358812 1185.33821656051 906.487161358812Q1185.59821656051 908.1371613588119 1186.0182165605102 910.097161358812Q1186.42821656051 912.047161358812 1186.91821656051 913.9471613588121Q1187.41821656051 915.847161358812 1187.89821656051 917.327161358812H1187.98821656051Q1188.77821656051 915.3571613588119 1189.46821656051 913.057161358812Q1190.14821656051 910.757161358812 1190.75821656051 908.357161358812Q1191.35821656051 905.9571613588121 1191.87821656051 903.6871613588121Q1192.0382165605101 903.027161358812 1192.42821656051 902.767161358812Q1192.8182165605099 902.517161358812 1193.65821656051 902.517161358812H1195.40821656051Q1196.15821656051 902.517161358812 1196.52821656051 902.737161358812Q1196.88821656051 902.9571613588121 1197.04821656051 903.6871613588121Q1197.42821656051 905.387161358812 1197.91821656051 907.277161358812Q1198.39821656051 909.167161358812 1198.91821656051 911.037161358812Q1199.43821656051 912.897161358812 1199.97821656051 914.527161358812Q1200.50821656051 916.147161358812 1200.98821656051 917.327161358812H1201.07821656051Q1201.69821656051 915.9371613588121 1202.18821656051 914.047161358812T1203.0182165605102 910.1871613588121Q1203.36821656051 908.2171613588121 1203.54821656051 906.527161358812Q1203.72821656051 904.847161358812 1203.72821656051 903.877161358812V903.9371613588121Q1203.72821656051 903.507161358812 1203.8782165605098 903.287161358812Q1204.57821656051 902.3271613588121 1205.80821656051 901.257161358812Q1206.04821656051 901.0771613588121 1206.21821656051 901.0771613588121T1206.5982165605099 901.257161358812Q1207.25821656051 901.8071613588121 1207.7282165605097 902.3171613588121Q1208.19821656051 902.8171613588121 1208.5382165605097 903.2871613588121Q1208.6782165605098 903.5271613588121 1208.6782165605098 903.9171613588121Q1208.6782165605098 905.1471613588121 1208.4082165605098 906.8771613588121Q1208.1282165605098 908.6071613588122 1207.6482165605098 910.5671613588121Q1207.1782165605098 912.517161358812 1206.5782165605096 914.4671613588121Q1205.9882165605097 916.4171613588121 1205.3382165605099 918.107161358812T1204.0582165605097 920.9671613588121Q1203.52821656051 921.9571613588121 1203.1082165605098 922.297161358812T1201.9182165605098 922.637161358812H1200.1182165605096Q1199.4582165605098 922.637161358812 1199.0082165605097 922.347161358812T1198.0782165605096 921.247161358812Q1197.7082165605098 920.6371613588119 1197.2382165605097 919.517161358812Q1196.7582165605097 918.4071613588119 1196.2782165605097 917.097161358812Q1195.8082165605097 915.787161358812 1195.4282165605096 914.557161358812T1194.8682165605096 912.4771613588119Q1194.6682165605098 911.5071613588119 1194.5282165605097 910.6071613588119T1194.3582165605098 909.1971613588119H1194.2382165605097Q1194.2082165605098 909.7071613588118 1194.0582165605097 910.6071613588119Q1193.8982165605098 911.5071613588119 1193.6782165605098 912.4771613588119Q1193.4682165605097 913.4371613588119 1193.0982165605096 914.6871613588119T1192.2882165605097 917.1871613588119Q1191.8482165605096 918.4471613588119 1191.4082165605098 919.5171613588119T1190.5882165605099 921.2171613588118Q1190.1682165605098 921.9371613588119 1189.6582165605098 922.2871613588119Q1189.1582165605098 922.6371613588119 1188.25821656051 922.6371613588119H1186.6082165605098Q1185.8282165605099 922.6371613588119 1185.4382165605098 922.3671613588119Q1185.03821656051 922.087161358812 1184.6182165605098 921.277161358812M1208.6782165605098 903.8771613588119V903.937161358812ZM1179.9882165605097 903.937161358812V903.8771613588119ZM1210.8682165605096 902.717161358812Q1210.8682165605096 902.527161358812 1210.9782165605097 902.3871613588119L1211.2882165605097 901.997161358812Q1211.6982165605095 901.537161358812 1212.2382165605097 901.017161358812Q1212.7882165605097 900.497161358812 1213.3382165605099 900.007161358812Q1213.6882165605098 899.727161358812 1213.8682165605096 899.727161358812T1214.4082165605096 900.007161358812Q1215.5982165605096 901.037161358812 1216.4282165605096 901.997161358812Q1216.6182165605096 902.2171613588121 1216.7482165605097 902.3771613588119Q1216.8682165605096 902.527161358812 1216.8682165605096 902.717161358812T1216.7482165605097 903.057161358812Q1216.6182165605096 903.2071613588118 1216.4182165605098 903.4471613588119Q1216.0182165605097 903.9071613588119 1215.4982165605097 904.4271613588119Q1214.9682165605097 904.9471613588119 1214.4082165605096 905.4171613588119Q1214.2082165605098 905.587161358812 1214.0882165605096 905.6371613588119Q1213.9682165605095 905.697161358812 1213.8682165605096 905.697161358812T1213.6582165605096 905.6371613588119Q1213.5482165605094 905.587161358812 1213.3082165605097 905.4171613588119Q1212.7282165605095 904.9471613588119 1212.2182165605095 904.4271613588119Q1211.6982165605095 903.9071613588119 1211.2882165605097 903.4271613588119Q1211.0982165605096 903.1871613588119 1210.9782165605097 903.047161358812Q1210.8682165605096 902.9071613588119 1210.8682165605096 902.717161358812M1216.1682165605096 908.4171613588119V921.8671613588119Q1216.1682165605096 922.307161358812 1215.9882165605095 922.4771613588119Q1215.7982165605094 922.6371613588119 1215.3582165605096 922.6371613588119H1212.3482165605096Q1211.9082165605096 922.6371613588119 1211.7182165605095 922.4771613588119Q1211.5382165605097 922.307161358812 1211.5382165605097 921.8671613588119V908.4171613588119Q1211.5382165605097 907.9771613588119 1211.7182165605095 907.807161358812Q1211.9082165605096 907.6371613588119 1212.3482165605096 907.6371613588119H1215.3582165605096Q1215.7982165605097 907.6371613588119 1215.9882165605095 907.807161358812Q1216.1682165605096 907.9771613588119 1216.1682165605096 908.4171613588119M1234.6582165605096 913.307161358812V921.8671613588119Q1234.6582165605096 922.307161358812 1234.4682165605095 922.4771613588119Q1234.2882165605097 922.6371613588119 1233.8482165605096 922.6371613588119H1230.8282165605096Q1230.3882165605096 922.6371613588119 1230.2082165605095 922.4771613588119Q1230.0282165605095 922.307161358812 1230.0282165605095 921.8671613588119V914.067161358812Q1230.0282165605095 912.4771613588119 1229.3482165605096 911.7471613588119Q1228.6782165605096 911.0071613588119 1227.5182165605097 911.0071613588119Q1226.3682165605096 911.0071613588119 1225.7382165605095 911.5071613588119Q1225.1182165605096 912.0071613588119 1224.7782165605095 912.7671613588119V921.8671613588119Q1224.7782165605095 922.307161358812 1224.5982165605096 922.4771613588119Q1224.4182165605098 922.6371613588119 1223.9782165605097 922.6371613588119H1220.9582165605098Q1220.5182165605097 922.6371613588119 1220.3382165605096 922.4771613588119Q1220.1482165605096 922.307161358812 1220.1482165605096 921.8671613588119V909.587161358812Q1220.1482165605096 909.2371613588119 1220.2982165605094 909.047161358812Q1220.6082165605094 908.6371613588119 1221.0382165605097 908.217161358812Q1221.4682165605095 907.787161358812 1222.0982165605096 907.307161358812Q1222.2882165605097 907.1571613588119 1222.4682165605095 907.1571613588119Q1222.6282165605094 907.1571613588119 1222.8382165605094 907.307161358812Q1223.4482165605095 907.787161358812 1223.8882165605096 908.2271613588119T1224.6682165605093 909.1371613588119H1224.7382165605095Q1224.9882165605095 908.817161358812 1225.4882165605095 908.3771613588119Q1225.9782165605095 907.947161358812 1226.8882165605096 907.6071613588119Q1227.7882165605095 907.277161358812 1229.1882165605093 907.277161358812Q1230.5682165605094 907.277161358812 1231.8082165605094 907.827161358812Q1233.0582165605094 908.387161358812 1233.8582165605094 909.7071613588121T1234.6582165605093 913.307161358812M1242.7882165605092 923.017161358812Q1241.2182165605093 923.017161358812 1240.1882165605093 922.757161358812Q1239.1482165605094 922.487161358812 1238.5282165605095 922.117161358812T1237.5582165605092 921.4371613588121Q1237.2882165605092 921.1871613588121 1237.4982165605093 920.877161358812L1238.9882165605095 918.6671613588121Q1239.3082165605094 918.1971613588121 1239.7182165605095 918.607161358812Q1240.1482165605094 919.017161358812 1240.8682165605094 919.4071613588121Q1241.5982165605094 919.797161358812 1242.6782165605093 919.797161358812Q1243.6482165605094 919.797161358812 1244.2682165605092 919.4671613588121Q1244.8982165605094 919.1371613588121 1244.8982165605094 918.507161358812Q1244.8982165605094 918.0671613588121 1244.6182165605094 917.787161358812T1243.6382165605094 917.2171613588121Q1242.9282165605093 916.9271613588121 1241.6682165605093 916.4671613588121Q1239.8082165605092 915.797161358812 1238.8582165605094 914.8471613588121Q1237.9082165605093 913.8871613588121 1237.9082165605093 912.057161358812Q1237.9082165605093 910.377161358812 1238.8382165605094 909.317161358812Q1239.7682165605092 908.267161358812 1241.2282165605093 907.777161358812Q1242.6782165605093 907.287161358812 1244.2682165605092 907.287161358812Q1246.2682165605092 907.287161358812 1247.0882165605094 907.657161358812Q1247.8982165605094 908.037161358812 1248.1282165605094 908.237161358812Q1248.3482165605092 908.427161358812 1248.4382165605093 908.677161358812Q1248.6282165605094 909.247161358812 1248.7282165605093 910.187161358812Q1248.7882165605092 910.727161358812 1248.4582165605093 910.907161358812Q1248.2782165605092 911.007161358812 1247.8982165605094 911.127161358812Q1247.5182165605092 911.237161358812 1247.1382165605091 911.327161358812T1246.5682165605092 911.417161358812Q1246.5082165605093 911.417161358812 1246.4382165605093 911.3771613588119Q1246.3782165605094 911.347161358812 1246.2082165605093 911.197161358812Q1246.0182165605092 911.007161358812 1245.5582165605092 910.757161358812T1244.2982165605092 910.507161358812T1242.968216560509 910.767161358812Q1242.428216560509 911.017161358812 1242.428216560509 911.6671613588119Q1242.428216560509 912.3671613588119 1243.1182165605092 912.717161358812Q1243.7982165605092 913.067161358812 1245.3582165605094 913.6271613588119Q1246.5982165605092 914.057161358812 1247.5082165605093 914.557161358812Q1248.428216560509 915.067161358812 1248.9182165605093 915.8771613588119Q1249.4182165605093 916.687161358812 1249.4182165605093 918.067161358812Q1249.4182165605093 919.8571613588119 1248.448216560509 920.947161358812Q1247.468216560509 922.037161358812 1245.9582165605093 922.527161358812Q1244.4382165605093 923.017161358812 1242.7882165605092 923.017161358812M1251.2482165605093 919.987161358812Q1251.2482165605093 919.787161358812 1251.3882165605091 919.6271613588119Q1251.5182165605092 919.477161358812 1251.7182165605093 919.217161358812Q1252.1782165605093 918.697161358812 1252.7682165605092 918.1371613588119T1253.9582165605093 917.047161358812Q1254.3382165605094 916.737161358812 1254.5282165605095 916.737161358812Q1254.7082165605093 916.737161358812 1255.1182165605094 917.047161358812Q1256.3882165605094 918.1271613588119 1257.3282165605094 919.2171613588121Q1257.5382165605095 919.4671613588121 1257.6682165605093 919.627161358812T1257.7982165605094 919.987161358812Q1257.7982165605094 920.1971613588121 1257.6582165605096 920.357161358812T1257.3182165605094 920.797161358812Q1256.8782165605094 921.297161358812 1256.2982165605094 921.8471613588121Q1255.7182165605095 922.4071613588121 1255.1182165605096 922.9371613588121Q1254.7382165605095 923.237161358812 1254.5282165605095 923.237161358812Q1254.3582165605094 923.237161358812 1253.9282165605096 922.9371613588121Q1253.2882165605095 922.4071613588121 1252.7282165605093 921.8471613588121Q1252.1782165605096 921.277161358812 1251.7182165605095 920.747161358812Q1251.5182165605092 920.507161358812 1251.3882165605094 920.3471613588121Q1251.2482165605093 920.1971613588121 1251.2482165605093 919.987161358812 "></path></g><rect width="491" height="311" x="754.5" y="594.5" id="space-saver" fill="transparent" stroke="transparent"></rect></g></svg>